<svg width="175" height="175" viewBox="0 0 175 175" fill="none" xmlns="http://www.w3.org/2000/svg">
  <style>
    .stroke {
      stroke: #000;
    }

    .fill {
      fill: #000;
    }

    @media (prefers-color-scheme: dark) {
      .stroke {
        stroke: #fff;
      }

      .fill {
        fill: #fff;
      }
    }
  </style>
  <path
    d="M98.5 9.81495L149.277 39.1312C156.084 43.0611 160.277 50.3239 160.277 58.1838V116.816C160.277 124.676 156.084 131.939 149.277 135.869L98.5 165.185C91.6932 169.115 83.3068 169.115 76.5 165.185L25.7228 135.869C18.916 131.939 14.7228 124.676 14.7228 116.816V58.1838C14.7228 50.3239 18.916 43.0611 25.7228 39.1312L76.5 9.81495C83.3068 5.88503 91.6932 5.88503 98.5 9.81495Z"
    stroke-width="6"
    class="stroke"
  />
  <path fill-rule="evenodd" clip-rule="evenodd"
    d="M87.5 24.7006V19.2089L57.3575 36.4168L27.215 53.6247L31.8817 56.4523V119.629L27.215 122.456L57.3575 139.664L87.5 156.872V151.381L143.118 119.629L147.785 122.456V88.0406V53.6247L143.118 56.4523L87.5 24.7006ZM147.785 53.6247L87.5 19.2089L27.215 53.6247V122.456L87.5 156.872L147.785 122.456V53.6247Z"
    class="fill"
  />
</svg>
