<svg width="1400" height="219" viewBox="0 0 1400 219" fill="none" xmlns="http://www.w3.org/2000/svg">
  <style>
    .stroke {
      stroke: #000;
    }
    .fill {
      fill: #000;
    }
  </style>
  <path
    d="M123.265 9.47948L195.693 50.1154C202.632 54.0086 206.928 61.3453 206.928 69.3019V149.347C206.928 157.304 202.632 164.641 195.693 168.534L123.265 209.17C116.578 212.921 108.422 212.921 101.735 209.17L29.3075 168.534C22.3684 164.641 18.0721 157.304 18.0721 149.347V69.3019C18.0721 61.3452 22.3684 54.0086 29.3075 50.1154L101.735 9.47948C108.422 5.72815 116.578 5.72815 123.265 9.47948Z"
    stroke-width="6"
    class="stroke"
  />
  <path
    fill-rule="evenodd"
    clip-rule="evenodd"
    d="M112.5 30.8615V24L73.7454 45.5L34.9907 67L40.9907 70.5328V149.467L34.9907 153L73.7454 174.5L112.5 196V189.139L184.009 149.467L190.009 153V110V67L184.009 70.5328L112.5 30.8615ZM190.009 67L112.5 24L34.9907 67V153L112.5 196L190.009 153V67Z"
    class="fill"
  />
  <path
    d="M316.545 96.2856H293.818C293.515 93.9522 292.894 91.8462 291.955 89.9674C291.015 88.0886 289.773 86.4825 288.227 85.1492C286.682 83.8159 284.848 82.8007 282.727 82.1037C280.636 81.3765 278.318 81.0128 275.773 81.0128C271.258 81.0128 267.364 82.1189 264.091 84.331C260.848 86.5431 258.348 89.7401 256.591 93.9219C254.864 98.1037 254 103.164 254 109.104C254 115.286 254.879 120.467 256.636 124.649C258.424 128.801 260.924 131.937 264.136 134.058C267.379 136.149 271.212 137.195 275.636 137.195C278.121 137.195 280.379 136.876 282.409 136.24C284.47 135.604 286.273 134.68 287.818 133.467C289.394 132.225 290.682 130.725 291.682 128.967C292.712 127.18 293.424 125.164 293.818 122.922L316.545 123.058C316.152 127.18 314.955 131.24 312.955 135.24C310.985 139.24 308.273 142.892 304.818 146.195C301.364 149.467 297.152 152.073 292.182 154.013C287.242 155.952 281.576 156.922 275.182 156.922C266.758 156.922 259.212 155.073 252.545 151.376C245.909 147.649 240.667 142.225 236.818 135.104C232.97 127.983 231.045 119.316 231.045 109.104C231.045 98.8613 233 90.1795 236.909 83.0583C240.818 75.9371 246.106 70.528 252.773 66.831C259.439 63.134 266.909 61.2856 275.182 61.2856C280.818 61.2856 286.03 62.0734 290.818 63.6492C295.606 65.1947 299.818 67.4674 303.455 70.4674C307.091 73.4371 310.045 77.0886 312.318 81.4219C314.591 85.7553 316 90.7098 316.545 96.2856ZM349.102 156.831C344.648 156.831 340.693 156.089 337.239 154.604C333.814 153.089 331.102 150.816 329.102 147.786C327.133 144.725 326.148 140.892 326.148 136.286C326.148 132.407 326.83 129.134 328.193 126.467C329.557 123.801 331.436 121.634 333.83 119.967C336.223 118.301 338.981 117.043 342.102 116.195C345.223 115.316 348.557 114.725 352.102 114.422C356.072 114.058 359.269 113.68 361.693 113.286C364.117 112.861 365.875 112.27 366.966 111.513C368.087 110.725 368.648 109.619 368.648 108.195V107.967C368.648 105.634 367.845 103.831 366.239 102.558C364.633 101.286 362.466 100.649 359.739 100.649C356.799 100.649 354.436 101.286 352.648 102.558C350.86 103.831 349.723 105.589 349.239 107.831L328.739 107.104C329.345 102.861 330.905 99.0734 333.42 95.7401C335.966 92.3765 339.451 89.7401 343.875 87.831C348.33 85.8916 353.678 84.9219 359.92 84.9219C364.375 84.9219 368.481 85.4522 372.239 86.5128C375.996 87.5431 379.269 89.0583 382.057 91.0583C384.845 93.028 386.996 95.4522 388.511 98.331C390.057 101.21 390.83 104.498 390.83 108.195V155.649H369.92V145.922H369.375C368.133 148.286 366.542 150.286 364.602 151.922C362.693 153.558 360.436 154.786 357.83 155.604C355.254 156.422 352.345 156.831 349.102 156.831ZM355.966 142.286C358.36 142.286 360.511 141.801 362.42 140.831C364.36 139.861 365.905 138.528 367.057 136.831C368.208 135.104 368.784 133.104 368.784 130.831V124.195C368.148 124.528 367.375 124.831 366.466 125.104C365.587 125.376 364.617 125.634 363.557 125.876C362.496 126.119 361.405 126.331 360.284 126.513C359.163 126.695 358.087 126.861 357.057 127.013C354.966 127.346 353.178 127.861 351.693 128.558C350.239 129.255 349.117 130.164 348.33 131.286C347.572 132.376 347.193 133.68 347.193 135.195C347.193 137.498 348.011 139.255 349.648 140.467C351.314 141.68 353.42 142.286 355.966 142.286ZM404.42 155.649V85.831H425.557V98.6492H426.33C427.784 94.4068 430.239 91.0583 433.693 88.6037C437.148 86.1492 441.269 84.9219 446.057 84.9219C450.905 84.9219 455.057 86.1644 458.511 88.6492C461.966 91.134 464.163 94.4674 465.102 98.6492H465.83C467.133 94.4977 469.678 91.1795 473.466 88.6947C477.254 86.1795 481.723 84.9219 486.875 84.9219C493.481 84.9219 498.845 87.0431 502.966 91.2856C507.087 95.4977 509.148 101.286 509.148 108.649V155.649H486.92V113.74C486.92 110.255 486.027 107.604 484.239 105.786C482.451 103.937 480.133 103.013 477.284 103.013C474.223 103.013 471.814 104.013 470.057 106.013C468.33 107.983 467.466 110.634 467.466 113.967V155.649H446.102V113.513C446.102 110.27 445.223 107.71 443.466 105.831C441.708 103.952 439.39 103.013 436.511 103.013C434.572 103.013 432.86 103.483 431.375 104.422C429.89 105.331 428.723 106.634 427.875 108.331C427.057 110.028 426.648 112.028 426.648 114.331V155.649H404.42ZM555.557 156.967C548.254 156.967 541.951 155.528 536.648 152.649C531.375 149.74 527.314 145.604 524.466 140.24C521.648 134.846 520.239 128.437 520.239 121.013C520.239 113.801 521.663 107.498 524.511 102.104C527.36 96.6795 531.375 92.4674 536.557 89.4674C541.739 86.4371 547.845 84.9219 554.875 84.9219C559.845 84.9219 564.39 85.6947 568.511 87.2401C572.633 88.7856 576.193 91.0734 579.193 94.1037C582.193 97.134 584.527 100.876 586.193 105.331C587.86 109.755 588.693 114.831 588.693 120.558V126.104H528.011V113.195H568.011C567.981 110.831 567.42 108.725 566.33 106.876C565.239 105.028 563.739 103.589 561.83 102.558C559.951 101.498 557.784 100.967 555.33 100.967C552.845 100.967 550.617 101.528 548.648 102.649C546.678 103.74 545.117 105.24 543.966 107.149C542.814 109.028 542.208 111.164 542.148 113.558V126.695C542.148 129.543 542.708 132.043 543.83 134.195C544.951 136.316 546.542 137.967 548.602 139.149C550.663 140.331 553.117 140.922 555.966 140.922C557.936 140.922 559.723 140.649 561.33 140.104C562.936 139.558 564.314 138.755 565.466 137.695C566.617 136.634 567.481 135.331 568.057 133.786L588.466 134.376C587.617 138.952 585.754 142.937 582.875 146.331C580.027 149.695 576.284 152.316 571.648 154.195C567.011 156.043 561.648 156.967 555.557 156.967ZM632.636 156.967C625.303 156.967 619 155.467 613.727 152.467C608.485 149.437 604.439 145.225 601.591 139.831C598.773 134.407 597.364 128.119 597.364 120.967C597.364 113.786 598.773 107.498 601.591 102.104C604.439 96.6795 608.485 92.4674 613.727 89.4674C619 86.4371 625.303 84.9219 632.636 84.9219C639.97 84.9219 646.258 86.4371 651.5 89.4674C656.773 92.4674 660.818 96.6795 663.636 102.104C666.485 107.498 667.909 113.786 667.909 120.967C667.909 128.119 666.485 134.407 663.636 139.831C660.818 145.225 656.773 149.437 651.5 152.467C646.258 155.467 639.97 156.967 632.636 156.967ZM632.773 140.195C635.439 140.195 637.697 139.376 639.545 137.74C641.394 136.104 642.803 133.831 643.773 130.922C644.773 128.013 645.273 124.649 645.273 120.831C645.273 116.952 644.773 113.558 643.773 110.649C642.803 107.74 641.394 105.467 639.545 103.831C637.697 102.195 635.439 101.376 632.773 101.376C630.015 101.376 627.682 102.195 625.773 103.831C623.894 105.467 622.455 107.74 621.455 110.649C620.485 113.558 620 116.952 620 120.831C620 124.649 620.485 128.013 621.455 130.922C622.455 133.831 623.894 136.104 625.773 137.74C627.682 139.376 630.015 140.195 632.773 140.195Z"
    class="fill"
  />
  <path
    d="M774.364 91.6492H768.545C767.939 88.4977 766.803 85.4522 765.136 82.5128C763.47 79.5431 761.318 76.8765 758.682 74.5128C756.076 72.1189 753.045 70.225 749.591 68.831C746.136 67.4371 742.318 66.7401 738.136 66.7401C732.015 66.7401 726.379 68.3765 721.227 71.6492C716.106 74.8916 712 79.6643 708.909 85.9674C705.848 92.2704 704.318 99.9825 704.318 109.104C704.318 118.286 705.848 126.028 708.909 132.331C712 138.634 716.106 143.407 721.227 146.649C726.379 149.861 732.015 151.467 738.136 151.467C742.318 151.467 746.136 150.786 749.591 149.422C753.045 148.028 756.076 146.149 758.682 143.786C761.318 141.392 763.47 138.71 765.136 135.74C766.803 132.77 767.939 129.71 768.545 126.558H774.364C773.697 130.316 772.409 133.998 770.5 137.604C768.621 141.21 766.136 144.483 763.045 147.422C759.985 150.331 756.364 152.649 752.182 154.376C748.03 156.073 743.348 156.922 738.136 156.922C730.379 156.922 723.545 154.952 717.636 151.013C711.727 147.043 707.091 141.467 703.727 134.286C700.394 127.104 698.727 118.71 698.727 109.104C698.727 99.4977 700.394 91.1037 703.727 83.9219C707.091 76.7401 711.727 71.1795 717.636 67.2401C723.545 63.2704 730.379 61.2856 738.136 61.2856C743.348 61.2856 748.03 62.1492 752.182 63.8765C756.364 65.5734 759.985 67.8765 763.045 70.7856C766.136 73.6643 768.621 76.9068 770.5 80.5128C772.409 84.1189 773.697 87.831 774.364 91.6492ZM799.795 110.376V155.649H794.25V62.5583H799.795V96.8765H800.341C801.977 93.2401 804.583 90.3462 808.159 88.1947C811.765 86.0128 816.083 84.9219 821.114 84.9219C825.811 84.9219 829.947 85.9219 833.523 87.9219C837.098 89.8916 839.886 92.725 841.886 96.4219C843.917 100.089 844.932 104.483 844.932 109.604V155.649H839.432V109.831C839.432 103.861 837.659 99.0734 834.114 95.4674C830.568 91.8613 825.886 90.0583 820.068 90.0583C816.159 90.0583 812.674 90.9068 809.614 92.6037C806.553 94.3007 804.144 96.6795 802.386 99.7401C800.659 102.77 799.795 106.316 799.795 110.376ZM895.102 157.104C888.799 157.104 883.314 155.543 878.648 152.422C873.981 149.301 870.375 145.028 867.83 139.604C865.284 134.18 864.011 127.998 864.011 121.058C864.011 114.089 865.284 107.876 867.83 102.422C870.405 96.9674 873.936 92.6643 878.42 89.5128C882.905 86.3613 888.027 84.7856 893.784 84.7856C897.693 84.7856 901.39 85.5734 904.875 87.1492C908.39 88.6947 911.481 90.9371 914.148 93.8765C916.845 96.8159 918.951 100.361 920.466 104.513C922.011 108.664 922.784 113.331 922.784 118.513V121.967H867.511V116.922H917.239C917.239 111.861 916.208 107.301 914.148 103.24C912.087 99.1795 909.284 95.9522 905.739 93.5583C902.193 91.1643 898.208 89.9674 893.784 89.9674C889.148 89.9674 885.011 91.2704 881.375 93.8765C877.769 96.4522 874.905 99.9371 872.784 104.331C870.693 108.725 869.602 113.634 869.511 119.058V121.331C869.511 127.149 870.527 132.376 872.557 137.013C874.617 141.619 877.557 145.27 881.375 147.967C885.193 150.634 889.769 151.967 895.102 151.967C898.92 151.967 902.178 151.331 904.875 150.058C907.602 148.755 909.83 147.18 911.557 145.331C913.284 143.483 914.587 141.695 915.466 139.967L920.511 142.013C919.451 144.346 917.799 146.68 915.557 149.013C913.345 151.316 910.527 153.24 907.102 154.786C903.708 156.331 899.708 157.104 895.102 157.104ZM941.875 155.649V85.831H947.284V96.3765H947.83C949.163 92.8613 951.466 90.0734 954.739 88.0128C958.011 85.9522 961.951 84.9219 966.557 84.9219C971.617 84.9219 975.693 86.134 978.784 88.5583C981.905 90.9825 984.148 94.2704 985.511 98.4219H986.011C987.375 94.331 989.814 91.0583 993.33 88.6037C996.875 86.1492 1001.24 84.9219 1006.42 84.9219C1013.18 84.9219 1018.33 87.0583 1021.88 91.331C1025.45 95.5734 1027.24 101.392 1027.24 108.786V155.649H1021.69V108.786C1021.69 102.967 1020.3 98.3916 1017.51 95.0583C1014.72 91.725 1010.63 90.0583 1005.24 90.0583C999.481 90.0583 995.057 91.8613 991.966 95.4674C988.875 99.0734 987.33 103.664 987.33 109.24V155.649H981.784V108.422C981.784 102.998 980.42 98.5886 977.693 95.1947C974.966 91.7704 970.875 90.0583 965.42 90.0583C961.723 90.0583 958.527 90.9068 955.83 92.6037C953.163 94.3007 951.087 96.634 949.602 99.6037C948.148 102.573 947.42 105.983 947.42 109.831V155.649H941.875ZM1050.52 155.649V85.831H1056.02V155.649H1050.52ZM1053.3 73.4674C1052.08 73.4674 1051.02 73.0431 1050.11 72.1946C1049.23 71.3462 1048.8 70.3159 1048.8 69.1037C1048.8 67.8916 1049.23 66.8613 1050.11 66.0128C1050.99 65.1643 1052.05 64.7401 1053.3 64.7401C1054.51 64.7401 1055.55 65.1643 1056.43 66.0128C1057.34 66.8613 1057.8 67.8916 1057.8 69.1037C1057.8 70.3159 1057.36 71.3462 1056.48 72.1946C1055.6 73.0431 1054.54 73.4674 1053.3 73.4674ZM1105.43 157.104C1099.49 157.104 1094.27 155.543 1089.75 152.422C1085.23 149.27 1081.7 144.967 1079.16 139.513C1076.64 134.058 1075.39 127.876 1075.39 120.967C1075.39 114.058 1076.66 107.876 1079.2 102.422C1081.75 96.9674 1085.28 92.6643 1089.8 89.5128C1094.31 86.3613 1099.51 84.7856 1105.39 84.7856C1109.81 84.7856 1113.84 85.6947 1117.48 87.5128C1121.14 89.331 1124.17 91.8613 1126.57 95.1037C1128.99 98.3462 1130.54 102.104 1131.2 106.376H1125.57C1124.66 101.649 1122.39 97.7401 1118.75 94.6492C1115.14 91.528 1110.7 89.9674 1105.43 89.9674C1100.7 89.9674 1096.49 91.3007 1092.8 93.9674C1089.1 96.6037 1086.19 100.255 1084.07 104.922C1081.95 109.558 1080.89 114.876 1080.89 120.876C1080.89 126.786 1081.92 132.089 1083.98 136.786C1086.04 141.452 1088.92 145.149 1092.61 147.876C1096.31 150.604 1100.58 151.967 1105.43 151.967C1108.86 151.967 1111.98 151.286 1114.8 149.922C1117.64 148.558 1120.02 146.619 1121.93 144.104C1123.84 141.589 1125.1 138.649 1125.7 135.286H1131.34C1130.67 139.589 1129.16 143.376 1126.8 146.649C1124.43 149.922 1121.42 152.483 1117.75 154.331C1114.08 156.18 1109.98 157.104 1105.43 157.104ZM1168.75 157.149C1164.72 157.149 1161.02 156.346 1157.66 154.74C1154.33 153.134 1151.64 150.786 1149.61 147.695C1147.61 144.604 1146.61 140.846 1146.61 136.422C1146.61 133.513 1147.13 130.952 1148.16 128.74C1149.19 126.528 1150.78 124.619 1152.93 123.013C1155.08 121.407 1157.84 120.089 1161.2 119.058C1164.57 117.998 1168.58 117.18 1173.25 116.604C1176.8 116.18 1179.96 115.77 1182.75 115.376C1185.54 114.952 1187.72 114.301 1189.3 113.422C1190.9 112.543 1191.7 111.21 1191.7 109.422V106.513C1191.7 101.422 1190.1 97.3765 1186.89 94.3765C1183.67 91.3765 1179.25 89.8765 1173.61 89.8765C1168.61 89.8765 1164.4 90.9825 1160.98 93.1947C1157.58 95.3765 1155.2 98.1947 1153.84 101.649L1148.61 99.6947C1149.95 96.3613 1151.87 93.5886 1154.39 91.3765C1156.93 89.1643 1159.84 87.5128 1163.11 86.4219C1166.42 85.331 1169.87 84.7856 1173.48 84.7856C1176.6 84.7856 1179.57 85.225 1182.39 86.1037C1185.23 86.9825 1187.77 88.3159 1189.98 90.1037C1192.22 91.8916 1193.99 94.1795 1195.3 96.9674C1196.6 99.725 1197.25 103.028 1197.25 106.876V155.649H1191.7V143.058H1191.3C1190.08 145.664 1188.42 148.043 1186.3 150.195C1184.2 152.316 1181.67 154.013 1178.7 155.286C1175.77 156.528 1172.45 157.149 1168.75 157.149ZM1169.3 152.013C1173.66 152.013 1177.52 150.952 1180.89 148.831C1184.28 146.68 1186.93 143.74 1188.84 140.013C1190.75 136.286 1191.7 132.058 1191.7 127.331V117.058C1191.01 117.664 1189.99 118.21 1188.66 118.695C1187.36 119.149 1185.87 119.558 1184.2 119.922C1182.57 120.255 1180.84 120.558 1179.02 120.831C1177.23 121.073 1175.49 121.301 1173.8 121.513C1168.7 122.119 1164.55 123.058 1161.34 124.331C1158.16 125.573 1155.83 127.21 1154.34 129.24C1152.89 131.27 1152.16 133.725 1152.16 136.604C1152.16 141.361 1153.8 145.119 1157.07 147.876C1160.34 150.634 1164.42 152.013 1169.3 152.013ZM1226.05 62.5583V155.649H1220.5V62.5583H1226.05ZM1293.36 100.876L1288.23 102.24C1287.41 99.6947 1286.24 97.4977 1284.73 95.6492C1283.21 93.8007 1281.3 92.3765 1279 91.3765C1276.73 90.3462 1274 89.831 1270.82 89.831C1265.7 89.831 1261.5 91.1037 1258.23 93.6492C1254.98 96.1947 1253.36 99.5128 1253.36 103.604C1253.36 106.937 1254.47 109.695 1256.68 111.876C1258.89 114.028 1262.27 115.664 1266.82 116.786L1277.55 119.467C1283.06 120.831 1287.21 123.043 1290 126.104C1292.79 129.134 1294.18 132.907 1294.18 137.422C1294.18 141.27 1293.14 144.68 1291.05 147.649C1288.95 150.619 1286.06 152.937 1282.36 154.604C1278.7 156.27 1274.42 157.104 1269.55 157.104C1263.03 157.104 1257.68 155.589 1253.5 152.558C1249.32 149.498 1246.64 145.119 1245.45 139.422L1250.77 138.058C1251.77 142.604 1253.85 146.073 1257 148.467C1260.18 150.831 1264.35 152.013 1269.5 152.013C1275.2 152.013 1279.79 150.664 1283.27 147.967C1286.79 145.27 1288.55 141.816 1288.55 137.604C1288.55 134.392 1287.52 131.68 1285.45 129.467C1283.39 127.255 1280.27 125.634 1276.09 124.604L1264.95 121.876C1259.26 120.483 1254.98 118.255 1252.14 115.195C1249.29 112.104 1247.86 108.301 1247.86 103.786C1247.86 100.028 1248.85 96.725 1250.82 93.8765C1252.79 91.028 1255.5 88.8007 1258.95 87.1947C1262.41 85.5886 1266.36 84.7856 1270.82 84.7856C1276.73 84.7856 1281.55 86.1795 1285.27 88.9674C1289 91.7553 1291.7 95.725 1293.36 100.876Z"
    class="fill"
  />
</svg>
